# xmcd CD database file
#
# Track frame offsets:
#	150
#	63940
#	145100
#
# Disc length: 3509 seconds
#
# Revision: 8
# Processed by: cddbd v1.5.2PL0 Copyright (c) Steve Scherf et al.
# Submitted via: CDex 1.70beta2
#
DISCID=220db303
DTITLE=Julian Mendelsohn - The Mountain Stream
DYEAR=2000
DGENRE=New Age
TTITLE0=Himalayan Mountain Stream
TTITLE1=Caverns of Tranquility
TTITLE2=Happy Valley Peaceful Waters
EXTD=YEAR: 2000
EXTT0=
EXTT1=
EXTT2=
PLAYORDER=
